<svg xmlns="http://www.w3.org/2000/svg" viewBox="0 0 64 64" fill="none">
  <!-- Architectural Ground Box (Deep Charcoal #212121) with 6px hard radius -->
  <rect x="3" y="3" width="58" height="58" rx="14" fill="#212121" stroke="#212121" stroke-width="2"/>
  
  <!-- Architectural Bone Accent Frame (#F1EDEA) -->
  <rect x="8" y="8" width="48" height="48" rx="10" fill="#F1EDEA"/>

  <!-- Brutalist Geometric Column / Letter 'S' for StayWise -->
  <path d="M40 20H24C21.7909 20 20 21.7909 20 24V28C20 30.2091 21.7909 32 24 32H36C38.2091 32 40 33.7909 40 36V40C40 42.2091 38.2091 44 36 44H20" stroke="#212121" stroke-width="5.5" stroke-linecap="square" stroke-linejoin="miter"/>

  <!-- Signature Terracotta Red Conversion Block (#C84B31) on bottom right -->
  <rect x="40" y="39" width="6" height="6" fill="#C84B31"/>

  <!-- Warm Brass AI Sparkle / Star (#C5A059) on top right -->
  <path d="M44 14L45.5 17.5L49 19L45.5 20.5L44 24L42.5 20.5L39 19L42.5 17.5L44 14Z" fill="#C5A059"/>
  <path d="M19 40L19.75 41.75L21.5 42.5L19.75 43.25L19 45L18.25 43.25L16.5 42.5L18.25 41.75L19 40Z" fill="#C5A059"/>
</svg>